<svg width="29" height="30" viewBox="0 0 29 30" fill="none" xmlns="http://www.w3.org/2000/svg">
<path d="M14.5 21H14.512M14.5 9V16.5M1.34501 8.8695L8.36501 1.845C8.59001 1.62 8.89001 1.5 9.22001 1.5H19.795C20.11 1.5 20.425 1.62 20.65 1.845L27.655 8.8545C27.88 9.0795 28 9.3795 28 9.7095V20.2905C28 20.6055 27.88 20.9205 27.655 21.1455L20.65 28.155C20.425 28.38 20.125 28.5 19.795 28.5H9.20501C9.04679 28.5017 8.88979 28.4721 8.74305 28.4129C8.59632 28.3537 8.46274 28.266 8.35001 28.155L1.34501 21.1455C1.23397 21.0328 1.14633 20.8992 1.08712 20.7525C1.02791 20.6057 0.998305 20.4487 1.00001 20.2905V9.7095C1.00001 9.3945 1.12001 9.0795 1.34501 8.8545V8.8695Z" stroke="black" stroke-width="2" stroke-miterlimit="10" stroke-linecap="round" stroke-linejoin="round"/>
</svg>
