<svg width="169" height="20" viewBox="0 0 169 20" fill="none" xmlns="http://www.w3.org/2000/svg">
<path d="M62.4995 7.57593C64.5824 7.57593 66.2631 9.27677 66.2631 11.3505V15.479C66.2631 16.0649 65.7893 16.5406 65.2141 16.5406C64.6388 16.5406 64.1651 16.0611 64.1651 15.479V11.8832C64.1651 10.6237 63.1838 9.58117 61.9769 9.58117C60.77 9.58117 59.7887 10.6276 59.7887 11.8832V15.479C59.7887 16.0801 59.3149 16.5406 58.7397 16.5406C58.1644 16.5406 57.6907 16.0801 57.6907 15.479V8.82017C57.6907 8.2342 58.1456 7.75857 58.7397 7.75857C59.2811 7.75857 59.736 8.19995 59.7736 8.75168C60.4579 8.04395 61.4204 7.58354 62.5032 7.58354L62.4995 7.57593Z" fill="white"/>
<path d="M71.9892 7.57593C74.3767 7.57593 76.2791 9.59259 76.2791 12.0582V12.2142C76.2791 12.7888 75.8167 13.2378 75.2677 13.2378H69.9476C70.2897 14.1586 71.1131 14.5772 72.3163 14.5772C72.9329 14.5772 73.6548 14.4554 74.3579 14.2119C74.4594 14.1776 74.5646 14.1586 74.6662 14.1586C75.2001 14.1586 75.6287 14.5924 75.6287 15.1327C75.6287 15.5665 75.373 15.9318 74.9782 16.0725C74.0872 16.3846 73.1773 16.5406 72.3351 16.5406C69.5039 16.5406 67.718 14.9234 67.6992 12.0582C67.6992 9.59259 69.6205 7.57593 71.9892 7.57593ZM71.9892 9.53932C70.9928 9.53932 70.1356 10.2851 69.8611 11.3277H74.136C73.8616 10.2851 73.0043 9.53932 71.9892 9.53932Z" fill="white"/>
<path d="M50.1749 4.33447C46.8437 4.33447 44.1442 7.06648 44.1442 10.4377C44.1442 13.809 46.8437 16.541 50.1749 16.541C53.5061 16.541 56.2057 13.809 56.2057 10.4377C56.2057 7.06648 53.5061 4.33447 50.1749 4.33447ZM50.1749 14.4901C47.9641 14.4901 46.1707 12.6751 46.1707 10.4377C46.1707 8.20037 47.9641 6.38538 50.1749 6.38538C52.3857 6.38538 54.1791 8.20037 54.1791 10.4377C54.1791 12.6751 52.3857 14.4901 50.1749 14.4901Z" fill="white"/>
<path d="M38.6547 4.35708C38.0381 4.35708 37.4666 4.69572 37.1658 5.23984L34.0941 10.7876L32.0111 7.0282C31.3832 5.8943 29.774 5.89811 29.1461 7.0282L27.0632 10.7876L24.9803 7.02439C24.3524 5.8905 22.7432 5.8905 22.1153 7.02439L20.0361 10.7838L17.9532 7.02439C17.3253 5.8905 15.7161 5.8905 15.0882 7.02439L13.0052 10.7876L11.0877 7.32119L10.7794 6.80751C9.68907 5.31975 7.94451 4.35327 5.97437 4.35327C2.53413 4.35708 -0.229336 7.30597 0.0150525 10.8484C0.225602 13.8658 2.66573 16.2934 5.65102 16.4532C7.89564 16.575 9.88458 15.4411 11.005 13.687L11.5803 14.7296C12.2081 15.8635 13.8174 15.8635 14.4452 14.7296L16.5282 10.9664L18.6074 14.7258C19.2353 15.8597 20.8445 15.8597 21.4723 14.7258L23.5553 10.9664L25.6345 14.7258C26.2624 15.8597 27.8716 15.8597 28.4995 14.7258L30.5824 10.9664L32.6616 14.7258C33.2895 15.8597 34.8987 15.8597 35.5266 14.7258L37.1771 11.7464V14.8742C37.1771 15.7607 37.8614 16.5217 38.7412 16.5408C39.636 16.556 40.3654 15.8292 40.3654 14.9274V6.08456C40.3654 5.1295 39.6022 4.35708 38.6585 4.35708H38.6547ZM5.97813 12.9564C4.58699 12.9564 3.46281 11.8149 3.46281 10.4109C3.46281 9.00681 4.59075 7.8653 5.97813 7.8653C7.3655 7.8653 8.49345 9.00681 8.49345 10.4109C8.49345 11.8149 7.3655 12.9564 5.97813 12.9564Z" fill="white"/>
<path d="M38.7371 3.3332C39.647 3.3332 40.3839 2.58741 40.3839 1.6666C40.3839 0.745784 39.647 0 38.7371 0C37.8273 0 37.0903 0.745784 37.0903 1.6666C37.0903 2.58741 37.8273 3.3332 38.7371 3.3332Z" fill="white"/>
<path d="M129.829 16.5167V4.42383H134.059C135.696 4.43489 136.923 5.115 137.742 6.46418C138.035 6.91759 138.22 7.39312 138.298 7.89077C138.358 8.38842 138.389 9.24824 138.389 10.4702C138.389 11.7697 138.342 12.6765 138.248 13.1907C138.204 13.4506 138.137 13.6828 138.049 13.8874C137.955 14.0865 137.841 14.2938 137.709 14.5095C137.355 15.079 136.863 15.549 136.232 15.9195C135.607 16.3176 134.842 16.5167 133.935 16.5167H129.829ZM131.662 6.1573V14.7832H133.852C134.88 14.7832 135.627 14.4321 136.091 13.7298C136.296 13.4699 136.426 13.1409 136.481 12.7428C136.531 12.3502 136.556 11.6148 136.556 10.5366C136.556 9.48601 136.531 8.73401 136.481 8.28059C136.415 7.82718 136.257 7.45948 136.008 7.17748C135.5 6.47524 134.781 6.13518 133.852 6.1573H131.662Z" fill="white"/>
<path d="M125.863 16.5167V4.42383H127.696V16.5167H125.863Z" fill="white"/>
<path d="M115.576 16.5167V4.42383H119.806C121.443 4.43489 122.671 5.115 123.489 6.46418C123.782 6.91759 123.967 7.39312 124.045 7.89077C124.106 8.38842 124.136 9.24824 124.136 10.4702C124.136 11.7697 124.089 12.6765 123.995 13.1907C123.951 13.4506 123.884 13.6828 123.796 13.8874C123.702 14.0865 123.589 14.2938 123.456 14.5095C123.102 15.079 122.61 15.549 121.979 15.9195C121.355 16.3176 120.589 16.5167 119.682 16.5167H115.576ZM117.409 6.1573V14.7832H119.599C120.628 14.7832 121.374 14.4321 121.838 13.7298C122.043 13.4699 122.173 13.1409 122.228 12.7428C122.278 12.3502 122.303 11.6148 122.303 10.5366C122.303 9.48601 122.278 8.73401 122.228 8.28059C122.162 7.82718 122.004 7.45948 121.756 7.17748C121.247 6.47524 120.528 6.13518 119.599 6.1573H117.409Z" fill="white"/>
<path d="M105.194 16.5167V7.90738H106.928V8.81974H106.961C107.53 8.13962 108.277 7.79956 109.2 7.79956C109.913 7.79956 110.566 8.05115 111.158 8.55433C111.744 9.06303 112.051 9.8095 112.078 10.7937V16.5167H110.345V11.3909C110.345 10.7882 110.184 10.3293 109.864 10.0141C109.549 9.69338 109.142 9.53303 108.644 9.53303C108.147 9.53303 107.738 9.69338 107.417 10.0141C107.091 10.3293 106.928 10.7882 106.928 11.3909V16.5167H105.194Z" fill="white"/>
<path d="M103.791 12.8673H98.4244C98.4244 13.5584 98.6234 14.0837 99.0216 14.4431C99.392 14.8081 99.8786 14.9906 100.481 14.9906C101.184 14.9906 101.811 14.7113 102.364 14.1529L103.617 15.2228C102.737 16.1628 101.703 16.6273 100.515 16.6162C100.061 16.6162 99.6187 16.5499 99.1874 16.4171C98.9718 16.3453 98.7617 16.2485 98.5571 16.1269C98.3414 16.0218 98.1396 15.8919 97.9516 15.737C97.5867 15.4163 97.2909 14.9684 97.0642 14.3934C96.8153 13.8404 96.6909 13.1216 96.6909 12.2369C96.6909 11.3854 96.7987 10.6776 97.0144 10.1136C97.23 9.53856 97.5065 9.08515 97.8438 8.75338C98.1866 8.41609 98.5709 8.1728 98.9967 8.0235C99.4169 7.87421 99.8316 7.79956 100.241 7.79956C101.225 7.81062 102.057 8.13409 102.737 8.76997C103.429 9.41691 103.78 10.3071 103.791 11.4407V12.8673ZM98.4244 11.4407H102.057C102.035 10.7716 101.855 10.2657 101.518 9.92286C101.186 9.59662 100.761 9.4335 100.241 9.4335C99.721 9.4335 99.2953 9.59662 98.9635 9.92286C98.6373 10.2657 98.4576 10.7716 98.4244 11.4407Z" fill="white"/>
<path d="M88.7019 20.0002V7.90738H90.4354V8.80315C91.0104 8.16174 91.7514 7.82721 92.6582 7.79956C93.7143 7.82721 94.4857 8.20321 94.9723 8.92756C95.21 9.1985 95.3731 9.55515 95.4616 9.9975C95.5446 10.4343 95.586 11.1753 95.586 12.2203C95.586 13.2377 95.5446 13.9676 95.4616 14.41C95.3731 14.8523 95.21 15.2145 94.9723 15.4965C94.7345 15.8283 94.4221 16.0937 94.035 16.2927C93.6535 16.4973 93.1946 16.6052 92.6582 16.6162C92.2158 16.6162 91.8205 16.5194 91.4721 16.3259C91.0961 16.149 90.7506 15.9057 90.4354 15.596V20.0002H88.7019ZM92.1357 14.8827C92.5448 14.8827 92.8683 14.8053 93.1061 14.6505C93.3438 14.4901 93.5125 14.2856 93.612 14.0367C93.7226 13.7769 93.7973 13.4893 93.836 13.1742C93.847 12.8645 93.8526 12.5466 93.8526 12.2203C93.8526 11.8775 93.847 11.543 93.836 11.2167C93.7973 10.8905 93.7226 10.603 93.612 10.3541C93.5125 10.0943 93.3438 9.88968 93.1061 9.74038C92.8683 9.60215 92.5448 9.53303 92.1357 9.53303C91.7486 9.53303 91.4417 9.61321 91.215 9.77356C90.9773 9.93391 90.8031 10.144 90.6925 10.4039C90.5874 10.6638 90.5183 10.9458 90.4851 11.2499C90.452 11.5706 90.4354 11.8941 90.4354 12.2203C90.4354 12.5244 90.452 12.8286 90.4851 13.1327C90.5183 13.4534 90.5874 13.7437 90.6925 14.0036C90.8031 14.2634 90.9773 14.4736 91.215 14.6339C91.4417 14.7998 91.7486 14.8827 92.1357 14.8827Z" fill="white"/>
<path d="M78.49 10.4702C78.49 9.06569 78.5315 8.12569 78.6144 7.65016C78.7029 7.17463 78.8383 6.79034 79.0208 6.49728C79.3139 5.93881 79.7839 5.44116 80.4308 5.00434C81.0667 4.56198 81.8602 4.33528 82.8112 4.32422C83.7733 4.33528 84.5751 4.56198 85.2165 5.00434C85.8524 5.44116 86.3113 5.93881 86.5933 6.49728C86.7979 6.79034 86.9389 7.17463 87.0163 7.65016C87.0882 8.12569 87.1242 9.06569 87.1242 10.4702C87.1242 11.8525 87.0882 12.787 87.0163 13.2736C86.9389 13.7602 86.7979 14.15 86.5933 14.443C86.3113 15.0015 85.8524 15.4936 85.2165 15.9194C84.5751 16.3618 83.7733 16.594 82.8112 16.6161C81.8602 16.594 81.0667 16.3618 80.4308 15.9194C79.7839 15.4936 79.3139 15.0015 79.0208 14.443C78.9323 14.2606 78.8522 14.0864 78.7803 13.9205C78.7139 13.7491 78.6586 13.5335 78.6144 13.2736C78.5315 12.787 78.49 11.8525 78.49 10.4702ZM80.3313 10.4702C80.3313 11.659 80.3755 12.4635 80.464 12.8837C80.5414 13.304 80.699 13.644 80.9368 13.9039C81.1303 14.1528 81.3846 14.3546 81.6998 14.5094C82.0095 14.6919 82.3799 14.7831 82.8112 14.7831C83.248 14.7831 83.6268 14.6919 83.9475 14.5094C84.2516 14.3546 84.4949 14.1528 84.6774 13.9039C84.9152 13.644 85.0783 13.304 85.1668 12.8837C85.2497 12.4635 85.2912 11.659 85.2912 10.4702C85.2912 9.28134 85.2497 8.47128 85.1668 8.03998C85.0783 7.63081 84.9152 7.29628 84.6774 7.0364C84.4949 6.78757 84.2516 6.58022 83.9475 6.41434C83.6268 6.25398 83.248 6.16828 82.8112 6.15722C82.3799 6.16828 82.0095 6.25398 81.6998 6.41434C81.3846 6.58022 81.1303 6.78757 80.9368 7.0364C80.699 7.29628 80.5414 7.63081 80.464 8.03998C80.3755 8.47128 80.3313 9.28134 80.3313 10.4702Z" fill="white"/>
</svg>
